<svg id="Layer_1" data-name="Layer 1" xmlns="http://www.w3.org/2000/svg" viewBox="0 0 448 448"><defs><style>.cls-1{fill:#0f52ba;}</style></defs><path class="cls-1" d="M314.38,144H133.62L224,221.46Z"/><path class="cls-1" d="M224,240a8,8,0,0,1-5.21-1.93L120,153.39V304H328V153.39l-98.79,84.68A8,8,0,0,1,224,240Z"/><path class="cls-1" d="M224,0C100.29,0,0,100.29,0,224S100.29,448,224,448,448,347.71,448,224,347.65.14,224,0ZM344,312a8,8,0,0,1-8,8H112a8,8,0,0,1-8-8V136a8,8,0,0,1,8-8H336a8,8,0,0,1,8,8Z"/></svg>